<mxfile host="app.diagrams.net" modified="2022-05-18T14:56:40.863Z" agent="5.0 (X11)" etag="yIKEJkVLfOTDaAm_aNfx" version="18.0.2" type="github">
  <diagram id="C5RBs43oDa-KdzZeNtuy" name="Page-1">
    <mxGraphModel dx="4071" dy="793" grid="1" gridSize="10" guides="1" tooltips="1" connect="1" arrows="1" fold="1" page="1" pageScale="1" pageWidth="827" pageHeight="1169" math="0" shadow="0">
      <root>
        <mxCell id="WIyWlLk6GJQsqaUBKTNV-0" />
        <mxCell id="WIyWlLk6GJQsqaUBKTNV-1" parent="WIyWlLk6GJQsqaUBKTNV-0" />
        <mxCell id="futbrR1-YWrO3oFF-76m-0" value="ServerConfigHandler" style="swimlane;fontStyle=2;align=center;verticalAlign=top;childLayout=stackLayout;horizontal=1;startSize=26;horizontalStack=0;resizeParent=1;resizeLast=0;collapsible=1;marginBottom=0;rounded=0;shadow=0;strokeWidth=1;" parent="WIyWlLk6GJQsqaUBKTNV-1" vertex="1">
          <mxGeometry x="-430" y="1105" width="390" height="518" as="geometry">
            <mxRectangle x="230" y="140" width="160" height="26" as="alternateBounds" />
          </mxGeometry>
        </mxCell>
        <mxCell id="futbrR1-YWrO3oFF-76m-3" value="default_parameters:dict" style="text;align=left;verticalAlign=top;spacingLeft=4;spacingRight=4;overflow=hidden;rotatable=0;points=[[0,0.5],[1,0.5]];portConstraint=eastwest;rounded=0;shadow=0;html=0;" parent="futbrR1-YWrO3oFF-76m-0" vertex="1">
          <mxGeometry y="26" width="390" height="26" as="geometry" />
        </mxCell>
        <mxCell id="futbrR1-YWrO3oFF-76m-4" value="" style="line;html=1;strokeWidth=1;align=left;verticalAlign=middle;spacingTop=-1;spacingLeft=3;spacingRight=3;rotatable=0;labelPosition=right;points=[];portConstraint=eastwest;" parent="futbrR1-YWrO3oFF-76m-0" vertex="1">
          <mxGeometry y="52" width="390" height="8" as="geometry" />
        </mxCell>
        <mxCell id="futbrR1-YWrO3oFF-76m-25" value="getServerParameters(ctx): dict" style="text;align=left;verticalAlign=top;spacingLeft=4;spacingRight=4;overflow=hidden;rotatable=0;points=[[0,0.5],[1,0.5]];portConstraint=eastwest;" parent="futbrR1-YWrO3oFF-76m-0" vertex="1">
          <mxGeometry y="60" width="390" height="26" as="geometry" />
        </mxCell>
        <mxCell id="16yLQQdebjXsxoNWo0BA-3" value="updateServerParameters(ctx, parameters:dict)" style="text;align=left;verticalAlign=top;spacingLeft=4;spacingRight=4;overflow=hidden;rotatable=0;points=[[0,0.5],[1,0.5]];portConstraint=eastwest;" parent="futbrR1-YWrO3oFF-76m-0" vertex="1">
          <mxGeometry y="86" width="390" height="26" as="geometry" />
        </mxCell>
        <mxCell id="futbrR1-YWrO3oFF-76m-5" value="findInServerAutoBanWhitelist(ctx, user:discord.User): discord.User" style="text;align=left;verticalAlign=top;spacingLeft=4;spacingRight=4;overflow=hidden;rotatable=0;points=[[0,0.5],[1,0.5]];portConstraint=eastwest;" parent="futbrR1-YWrO3oFF-76m-0" vertex="1">
          <mxGeometry y="112" width="390" height="26" as="geometry" />
        </mxCell>
        <mxCell id="16yLQQdebjXsxoNWo0BA-4" value="addInServerAutoBanWhitelist(ctx, user:discord.User): bool" style="text;align=left;verticalAlign=top;spacingLeft=4;spacingRight=4;overflow=hidden;rotatable=0;points=[[0,0.5],[1,0.5]];portConstraint=eastwest;" parent="futbrR1-YWrO3oFF-76m-0" vertex="1">
          <mxGeometry y="138" width="390" height="26" as="geometry" />
        </mxCell>
        <mxCell id="dx3bUJaOEJ7-RdNEmy3w-0" value="removeInServerAutoBanWhitelist(ctx, user:discord.User): bool" style="text;align=left;verticalAlign=top;spacingLeft=4;spacingRight=4;overflow=hidden;rotatable=0;points=[[0,0.5],[1,0.5]];portConstraint=eastwest;" parent="futbrR1-YWrO3oFF-76m-0" vertex="1">
          <mxGeometry y="164" width="390" height="26" as="geometry" />
        </mxCell>
        <mxCell id="16yLQQdebjXsxoNWo0BA-0" value="findInServerPolder(ctx, discord_media_link:str): discord.Message.ID" style="text;align=left;verticalAlign=top;spacingLeft=4;spacingRight=4;overflow=hidden;rotatable=0;points=[[0,0.5],[1,0.5]];portConstraint=eastwest;" parent="futbrR1-YWrO3oFF-76m-0" vertex="1">
          <mxGeometry y="190" width="390" height="26" as="geometry" />
        </mxCell>
        <mxCell id="3XRT7OOr8QnibtkNFKr1-0" value="removeInServerPolder(ctx, discord_media_link:str): bool" style="text;whiteSpace=wrap;html=1;" parent="futbrR1-YWrO3oFF-76m-0" vertex="1">
          <mxGeometry y="216" width="390" height="30" as="geometry" />
        </mxCell>
        <mxCell id="3XRT7OOr8QnibtkNFKr1-1" value="getReactionTriggers(ctx): dict" style="text;whiteSpace=wrap;html=1;" parent="futbrR1-YWrO3oFF-76m-0" vertex="1">
          <mxGeometry y="246" width="390" height="30" as="geometry" />
        </mxCell>
        <mxCell id="3XRT7OOr8QnibtkNFKr1-2" value="addReactionTrigger(ctx, trigger, reaction): bool" style="text;whiteSpace=wrap;html=1;" parent="futbrR1-YWrO3oFF-76m-0" vertex="1">
          <mxGeometry y="276" width="390" height="30" as="geometry" />
        </mxCell>
        <mxCell id="3XRT7OOr8QnibtkNFKr1-3" value="removeReactionTrigger(ctx, trigger, reaction): bool" style="text;whiteSpace=wrap;html=1;" parent="futbrR1-YWrO3oFF-76m-0" vertex="1">
          <mxGeometry y="306" width="390" height="30" as="geometry" />
        </mxCell>
        <mxCell id="16yLQQdebjXsxoNWo0BA-5" value="addInServerPolder(ctx, message:discord.Message): bool" style="text;align=left;verticalAlign=top;spacingLeft=4;spacingRight=4;overflow=hidden;rotatable=0;points=[[0,0.5],[1,0.5]];portConstraint=eastwest;" parent="futbrR1-YWrO3oFF-76m-0" vertex="1">
          <mxGeometry y="336" width="390" height="26" as="geometry" />
        </mxCell>
        <mxCell id="16yLQQdebjXsxoNWo0BA-45" value="setBackupServer(ctx, server:discord.Guild): bool" style="text;align=left;verticalAlign=top;spacingLeft=4;spacingRight=4;overflow=hidden;rotatable=0;points=[[0,0.5],[1,0.5]];portConstraint=eastwest;" parent="futbrR1-YWrO3oFF-76m-0" vertex="1">
          <mxGeometry y="362" width="390" height="26" as="geometry" />
        </mxCell>
        <mxCell id="16yLQQdebjXsxoNWo0BA-58" value="getBackupServer(ctx): discord.Guild" style="text;align=left;verticalAlign=top;spacingLeft=4;spacingRight=4;overflow=hidden;rotatable=0;points=[[0,0.5],[1,0.5]];portConstraint=eastwest;" parent="futbrR1-YWrO3oFF-76m-0" vertex="1">
          <mxGeometry y="388" width="390" height="26" as="geometry" />
        </mxCell>
        <mxCell id="JF6vles-xWb7g5KUlG0W-0" value="_create_server_config_folder(ctx)" style="text;align=left;verticalAlign=top;spacingLeft=4;spacingRight=4;overflow=hidden;rotatable=0;points=[[0,0.5],[1,0.5]];portConstraint=eastwest;" parent="futbrR1-YWrO3oFF-76m-0" vertex="1">
          <mxGeometry y="414" width="390" height="26" as="geometry" />
        </mxCell>
        <mxCell id="JF6vles-xWb7g5KUlG0W-1" value="_server_folder_exists(self, ctx): boolean" style="text;align=left;verticalAlign=top;spacingLeft=4;spacingRight=4;overflow=hidden;rotatable=0;points=[[0,0.5],[1,0.5]];portConstraint=eastwest;" parent="futbrR1-YWrO3oFF-76m-0" vertex="1">
          <mxGeometry y="440" width="390" height="26" as="geometry" />
        </mxCell>
        <mxCell id="JF6vles-xWb7g5KUlG0W-2" value="_check_folder(ctx)" style="text;align=left;verticalAlign=top;spacingLeft=4;spacingRight=4;overflow=hidden;rotatable=0;points=[[0,0.5],[1,0.5]];portConstraint=eastwest;" parent="futbrR1-YWrO3oFF-76m-0" vertex="1">
          <mxGeometry y="466" width="390" height="26" as="geometry" />
        </mxCell>
        <mxCell id="futbrR1-YWrO3oFF-76m-6" value="" style="endArrow=none;startArrow=diamondThin;endFill=0;startFill=1;html=1;verticalAlign=bottom;labelBackgroundColor=none;strokeWidth=1;startSize=8;endSize=8;rounded=0;entryX=0.5;entryY=0;entryDx=0;entryDy=0;exitX=0.5;exitY=1;exitDx=0;exitDy=0;" parent="WIyWlLk6GJQsqaUBKTNV-1" source="futbrR1-YWrO3oFF-76m-17" target="futbrR1-YWrO3oFF-76m-0" edge="1">
          <mxGeometry width="160" relative="1" as="geometry">
            <mxPoint x="-10.5" y="735" as="sourcePoint" />
            <mxPoint x="-250" y="865" as="targetPoint" />
            <Array as="points">
              <mxPoint x="30" y="1015" />
              <mxPoint x="-235" y="1015" />
            </Array>
          </mxGeometry>
        </mxCell>
        <mxCell id="futbrR1-YWrO3oFF-76m-7" value="discord.Bot" style="swimlane;fontStyle=0;align=center;verticalAlign=top;childLayout=stackLayout;horizontal=1;startSize=26;horizontalStack=0;resizeParent=1;resizeLast=0;collapsible=1;marginBottom=0;rounded=0;shadow=0;strokeWidth=1;" parent="WIyWlLk6GJQsqaUBKTNV-1" vertex="1">
          <mxGeometry x="-52" y="620" width="160" height="160" as="geometry">
            <mxRectangle x="270" y="530" width="160" height="26" as="alternateBounds" />
          </mxGeometry>
        </mxCell>
        <mxCell id="futbrR1-YWrO3oFF-76m-11" value="intents: discord.Intents" style="text;align=left;verticalAlign=top;spacingLeft=4;spacingRight=4;overflow=hidden;rotatable=0;points=[[0,0.5],[1,0.5]];portConstraint=eastwest;fontStyle=4" parent="futbrR1-YWrO3oFF-76m-7" vertex="1">
          <mxGeometry y="26" width="160" height="26" as="geometry" />
        </mxCell>
        <mxCell id="futbrR1-YWrO3oFF-76m-15" value="command_prefix: str" style="text;align=left;verticalAlign=top;spacingLeft=4;spacingRight=4;overflow=hidden;rotatable=0;points=[[0,0.5],[1,0.5]];portConstraint=eastwest;fontStyle=4" parent="futbrR1-YWrO3oFF-76m-7" vertex="1">
          <mxGeometry y="52" width="160" height="26" as="geometry" />
        </mxCell>
        <mxCell id="futbrR1-YWrO3oFF-76m-10" value="" style="line;html=1;strokeWidth=1;align=left;verticalAlign=middle;spacingTop=-1;spacingLeft=3;spacingRight=3;rotatable=0;labelPosition=right;points=[];portConstraint=eastwest;" parent="futbrR1-YWrO3oFF-76m-7" vertex="1">
          <mxGeometry y="78" width="160" height="22" as="geometry" />
        </mxCell>
        <mxCell id="futbrR1-YWrO3oFF-76m-12" value="add_cog" style="text;align=left;verticalAlign=top;spacingLeft=4;spacingRight=4;overflow=hidden;rotatable=0;points=[[0,0.5],[1,0.5]];portConstraint=eastwest;" parent="futbrR1-YWrO3oFF-76m-7" vertex="1">
          <mxGeometry y="100" width="160" height="28" as="geometry" />
        </mxCell>
        <mxCell id="futbrR1-YWrO3oFF-76m-16" value="run" style="text;align=left;verticalAlign=top;spacingLeft=4;spacingRight=4;overflow=hidden;rotatable=0;points=[[0,0.5],[1,0.5]];portConstraint=eastwest;" parent="futbrR1-YWrO3oFF-76m-7" vertex="1">
          <mxGeometry y="128" width="160" height="28" as="geometry" />
        </mxCell>
        <mxCell id="futbrR1-YWrO3oFF-76m-24" style="edgeStyle=orthogonalEdgeStyle;rounded=0;orthogonalLoop=1;jettySize=auto;html=1;entryX=0.5;entryY=1;entryDx=0;entryDy=0;" parent="WIyWlLk6GJQsqaUBKTNV-1" source="futbrR1-YWrO3oFF-76m-17" target="futbrR1-YWrO3oFF-76m-7" edge="1">
          <mxGeometry relative="1" as="geometry" />
        </mxCell>
        <mxCell id="16yLQQdebjXsxoNWo0BA-26" value="" style="edgeStyle=none;curved=1;rounded=0;orthogonalLoop=1;jettySize=auto;html=1;endArrow=open;startSize=14;endSize=14;sourcePerimeterSpacing=8;targetPerimeterSpacing=8;entryX=0.5;entryY=0;entryDx=0;entryDy=0;exitX=0.5;exitY=1;exitDx=0;exitDy=0;" parent="WIyWlLk6GJQsqaUBKTNV-1" source="futbrR1-YWrO3oFF-76m-17" target="16yLQQdebjXsxoNWo0BA-24" edge="1">
          <mxGeometry relative="1" as="geometry" />
        </mxCell>
        <mxCell id="futbrR1-YWrO3oFF-76m-17" value="PolBot" style="swimlane;fontStyle=0;align=center;verticalAlign=top;childLayout=stackLayout;horizontal=1;startSize=26;horizontalStack=0;resizeParent=1;resizeLast=0;collapsible=1;marginBottom=0;rounded=0;shadow=0;strokeWidth=1;" parent="WIyWlLk6GJQsqaUBKTNV-1" vertex="1">
          <mxGeometry x="-52" y="820" width="160" height="160" as="geometry">
            <mxRectangle x="270" y="530" width="160" height="26" as="alternateBounds" />
          </mxGeometry>
        </mxCell>
        <mxCell id="futbrR1-YWrO3oFF-76m-20" value="" style="line;html=1;strokeWidth=1;align=left;verticalAlign=middle;spacingTop=-1;spacingLeft=3;spacingRight=3;rotatable=0;labelPosition=right;points=[];portConstraint=eastwest;" parent="futbrR1-YWrO3oFF-76m-17" vertex="1">
          <mxGeometry y="26" width="160" height="22" as="geometry" />
        </mxCell>
        <mxCell id="futbrR1-YWrO3oFF-76m-28" value="ReactionHandler" style="swimlane;fontStyle=2;align=center;verticalAlign=top;childLayout=stackLayout;horizontal=1;startSize=26;horizontalStack=0;resizeParent=1;resizeLast=0;collapsible=1;marginBottom=0;rounded=0;shadow=0;strokeWidth=1;" parent="WIyWlLk6GJQsqaUBKTNV-1" vertex="1">
          <mxGeometry x="-30" y="1105" width="430" height="290" as="geometry">
            <mxRectangle x="230" y="140" width="160" height="26" as="alternateBounds" />
          </mxGeometry>
        </mxCell>
        <mxCell id="16yLQQdebjXsxoNWo0BA-2" value="bot: PolBot" style="text;align=left;verticalAlign=top;spacingLeft=4;spacingRight=4;overflow=hidden;rotatable=0;points=[[0,0.5],[1,0.5]];portConstraint=eastwest;rounded=0;shadow=0;html=0;" parent="futbrR1-YWrO3oFF-76m-28" vertex="1">
          <mxGeometry y="26" width="430" height="26" as="geometry" />
        </mxCell>
        <mxCell id="futbrR1-YWrO3oFF-76m-30" value="" style="line;html=1;strokeWidth=1;align=left;verticalAlign=middle;spacingTop=-1;spacingLeft=3;spacingRight=3;rotatable=0;labelPosition=right;points=[];portConstraint=eastwest;" parent="futbrR1-YWrO3oFF-76m-28" vertex="1">
          <mxGeometry y="52" width="430" height="8" as="geometry" />
        </mxCell>
        <mxCell id="futbrR1-YWrO3oFF-76m-26" value="add_custom_reaction_trigger(ctx, triggerphrase: str, reaction: discord.Emoji)" style="text;align=left;verticalAlign=top;spacingLeft=4;spacingRight=4;overflow=hidden;rotatable=0;points=[[0,0.5],[1,0.5]];portConstraint=eastwest;" parent="futbrR1-YWrO3oFF-76m-28" vertex="1">
          <mxGeometry y="60" width="430" height="16" as="geometry" />
        </mxCell>
        <mxCell id="16yLQQdebjXsxoNWo0BA-8" value="add_default_reaction_trigger(ctx, triggerphrase: str, reaction)" style="text;align=left;verticalAlign=top;spacingLeft=4;spacingRight=4;overflow=hidden;rotatable=0;points=[[0,0.5],[1,0.5]];portConstraint=eastwest;" parent="futbrR1-YWrO3oFF-76m-28" vertex="1">
          <mxGeometry y="76" width="430" height="16" as="geometry" />
        </mxCell>
        <mxCell id="16yLQQdebjXsxoNWo0BA-9" value="remove_custom_reaction_trigger(ctx, triggerphrase: str, reaction: discord.Emoji)" style="text;align=left;verticalAlign=top;spacingLeft=4;spacingRight=4;overflow=hidden;rotatable=0;points=[[0,0.5],[1,0.5]];portConstraint=eastwest;" parent="futbrR1-YWrO3oFF-76m-28" vertex="1">
          <mxGeometry y="92" width="430" height="16" as="geometry" />
        </mxCell>
        <mxCell id="16yLQQdebjXsxoNWo0BA-10" value="remove_default_reaction_trigger(ctx, triggerphrase: str, reaction)" style="text;align=left;verticalAlign=top;spacingLeft=4;spacingRight=4;overflow=hidden;rotatable=0;points=[[0,0.5],[1,0.5]];portConstraint=eastwest;" parent="futbrR1-YWrO3oFF-76m-28" vertex="1">
          <mxGeometry y="108" width="430" height="16" as="geometry" />
        </mxCell>
        <mxCell id="16yLQQdebjXsxoNWo0BA-19" value="list_reaction_triggers(ctx)" style="text;align=left;verticalAlign=top;spacingLeft=4;spacingRight=4;overflow=hidden;rotatable=0;points=[[0,0.5],[1,0.5]];portConstraint=eastwest;" parent="futbrR1-YWrO3oFF-76m-28" vertex="1">
          <mxGeometry y="124" width="430" height="16" as="geometry" />
        </mxCell>
        <mxCell id="16yLQQdebjXsxoNWo0BA-20" value="string_search(message)" style="text;align=left;verticalAlign=top;spacingLeft=4;spacingRight=4;overflow=hidden;rotatable=0;points=[[0,0.5],[1,0.5]];portConstraint=eastwest;" parent="futbrR1-YWrO3oFF-76m-28" vertex="1">
          <mxGeometry y="140" width="430" height="16" as="geometry" />
        </mxCell>
        <mxCell id="16yLQQdebjXsxoNWo0BA-21" value="save_reaction_triggers" style="text;align=left;verticalAlign=top;spacingLeft=4;spacingRight=4;overflow=hidden;rotatable=0;points=[[0,0.5],[1,0.5]];portConstraint=eastwest;" parent="futbrR1-YWrO3oFF-76m-28" vertex="1">
          <mxGeometry y="156" width="430" height="16" as="geometry" />
        </mxCell>
        <mxCell id="16yLQQdebjXsxoNWo0BA-22" value="string_search(message)" style="text;align=left;verticalAlign=top;spacingLeft=4;spacingRight=4;overflow=hidden;rotatable=0;points=[[0,0.5],[1,0.5]];portConstraint=eastwest;" parent="futbrR1-YWrO3oFF-76m-28" vertex="1">
          <mxGeometry y="172" width="430" height="16" as="geometry" />
        </mxCell>
        <mxCell id="16yLQQdebjXsxoNWo0BA-23" value="is_default_emoji(reaction)" style="text;align=left;verticalAlign=top;spacingLeft=4;spacingRight=4;overflow=hidden;rotatable=0;points=[[0,0.5],[1,0.5]];portConstraint=eastwest;" parent="futbrR1-YWrO3oFF-76m-28" vertex="1">
          <mxGeometry y="188" width="430" height="16" as="geometry" />
        </mxCell>
        <mxCell id="16yLQQdebjXsxoNWo0BA-59" value="if_can_shitpost_here(ctx)" style="text;align=left;verticalAlign=top;spacingLeft=4;spacingRight=4;overflow=hidden;rotatable=0;points=[[0,0.5],[1,0.5]];portConstraint=eastwest;" parent="futbrR1-YWrO3oFF-76m-28" vertex="1">
          <mxGeometry y="204" width="430" height="16" as="geometry" />
        </mxCell>
        <mxCell id="futbrR1-YWrO3oFF-76m-34" value="" style="endArrow=none;startArrow=diamondThin;endFill=0;startFill=1;html=1;verticalAlign=bottom;labelBackgroundColor=none;strokeWidth=1;startSize=8;endSize=8;rounded=0;entryX=0.5;entryY=0;entryDx=0;entryDy=0;exitX=0.5;exitY=1;exitDx=0;exitDy=0;" parent="WIyWlLk6GJQsqaUBKTNV-1" source="futbrR1-YWrO3oFF-76m-17" target="futbrR1-YWrO3oFF-76m-28" edge="1">
          <mxGeometry width="160" relative="1" as="geometry">
            <mxPoint x="110" y="965" as="sourcePoint" />
            <mxPoint x="-120" y="1095" as="targetPoint" />
            <Array as="points" />
          </mxGeometry>
        </mxCell>
        <mxCell id="16yLQQdebjXsxoNWo0BA-24" value="ModerationHandler" style="swimlane;fontStyle=0;align=center;verticalAlign=top;childLayout=stackLayout;horizontal=1;startSize=26;horizontalStack=0;resizeParent=1;resizeLast=0;collapsible=1;marginBottom=0;rounded=0;shadow=0;strokeWidth=1;hachureGap=4;" parent="WIyWlLk6GJQsqaUBKTNV-1" vertex="1">
          <mxGeometry x="410" y="1105" width="330" height="315" as="geometry">
            <mxRectangle x="410" y="1105" width="160" height="26" as="alternateBounds" />
          </mxGeometry>
        </mxCell>
        <mxCell id="16yLQQdebjXsxoNWo0BA-27" value="bot: PolBot" style="text;align=left;verticalAlign=top;spacingLeft=4;spacingRight=4;overflow=hidden;rotatable=0;points=[[0,0.5],[1,0.5]];portConstraint=eastwest;rounded=0;shadow=0;html=0;" parent="16yLQQdebjXsxoNWo0BA-24" vertex="1">
          <mxGeometry y="26" width="330" height="26" as="geometry" />
        </mxCell>
        <mxCell id="16yLQQdebjXsxoNWo0BA-25" value="" style="line;html=1;strokeWidth=1;align=left;verticalAlign=middle;spacingTop=-1;spacingLeft=3;spacingRight=3;rotatable=0;labelPosition=right;points=[];portConstraint=eastwest;" parent="16yLQQdebjXsxoNWo0BA-24" vertex="1">
          <mxGeometry y="52" width="330" height="22" as="geometry" />
        </mxCell>
        <mxCell id="16yLQQdebjXsxoNWo0BA-28" value="stop_pol_bot(ctx)" style="text;align=left;verticalAlign=top;spacingLeft=4;spacingRight=4;overflow=hidden;rotatable=0;points=[[0,0.5],[1,0.5]];portConstraint=eastwest;" parent="16yLQQdebjXsxoNWo0BA-24" vertex="1">
          <mxGeometry y="74" width="330" height="16" as="geometry" />
        </mxCell>
        <mxCell id="16yLQQdebjXsxoNWo0BA-29" value="enablelockdown(ctx)" style="text;align=left;verticalAlign=top;spacingLeft=4;spacingRight=4;overflow=hidden;rotatable=0;points=[[0,0.5],[1,0.5]];portConstraint=eastwest;" parent="16yLQQdebjXsxoNWo0BA-24" vertex="1">
          <mxGeometry y="90" width="330" height="16" as="geometry" />
        </mxCell>
        <mxCell id="16yLQQdebjXsxoNWo0BA-30" value="disablelockdown(self, ctx)" style="text;align=left;verticalAlign=top;spacingLeft=4;spacingRight=4;overflow=hidden;rotatable=0;points=[[0,0.5],[1,0.5]];portConstraint=eastwest;" parent="16yLQQdebjXsxoNWo0BA-24" vertex="1">
          <mxGeometry y="106" width="330" height="16" as="geometry" />
        </mxCell>
        <mxCell id="16yLQQdebjXsxoNWo0BA-31" value="lockdown_status(self, ctx)" style="text;align=left;verticalAlign=top;spacingLeft=4;spacingRight=4;overflow=hidden;rotatable=0;points=[[0,0.5],[1,0.5]];portConstraint=eastwest;" parent="16yLQQdebjXsxoNWo0BA-24" vertex="1">
          <mxGeometry y="122" width="330" height="16" as="geometry" />
        </mxCell>
        <mxCell id="16yLQQdebjXsxoNWo0BA-32" value="set_autoban_age(self, ctx, age)" style="text;align=left;verticalAlign=top;spacingLeft=4;spacingRight=4;overflow=hidden;rotatable=0;points=[[0,0.5],[1,0.5]];portConstraint=eastwest;" parent="16yLQQdebjXsxoNWo0BA-24" vertex="1">
          <mxGeometry y="138" width="330" height="16" as="geometry" />
        </mxCell>
        <mxCell id="16yLQQdebjXsxoNWo0BA-33" value="get_autoban_age(self, ctx)" style="text;align=left;verticalAlign=top;spacingLeft=4;spacingRight=4;overflow=hidden;rotatable=0;points=[[0,0.5],[1,0.5]];portConstraint=eastwest;" parent="16yLQQdebjXsxoNWo0BA-24" vertex="1">
          <mxGeometry y="154" width="330" height="16" as="geometry" />
        </mxCell>
        <mxCell id="16yLQQdebjXsxoNWo0BA-34" value="enableautoban(self, ctx)" style="text;align=left;verticalAlign=top;spacingLeft=4;spacingRight=4;overflow=hidden;rotatable=0;points=[[0,0.5],[1,0.5]];portConstraint=eastwest;" parent="16yLQQdebjXsxoNWo0BA-24" vertex="1">
          <mxGeometry y="170" width="330" height="16" as="geometry" />
        </mxCell>
        <mxCell id="16yLQQdebjXsxoNWo0BA-35" value="disableautoban(self, ctx)" style="text;align=left;verticalAlign=top;spacingLeft=4;spacingRight=4;overflow=hidden;rotatable=0;points=[[0,0.5],[1,0.5]];portConstraint=eastwest;" parent="16yLQQdebjXsxoNWo0BA-24" vertex="1">
          <mxGeometry y="186" width="330" height="16" as="geometry" />
        </mxCell>
        <mxCell id="16yLQQdebjXsxoNWo0BA-36" value="autoban_status(self, ctx)" style="text;align=left;verticalAlign=top;spacingLeft=4;spacingRight=4;overflow=hidden;rotatable=0;points=[[0,0.5],[1,0.5]];portConstraint=eastwest;" parent="16yLQQdebjXsxoNWo0BA-24" vertex="1">
          <mxGeometry y="202" width="330" height="16" as="geometry" />
        </mxCell>
        <mxCell id="16yLQQdebjXsxoNWo0BA-37" value="add_to_whitelist(self, ctx, user: discord.User)" style="text;align=left;verticalAlign=top;spacingLeft=4;spacingRight=4;overflow=hidden;rotatable=0;points=[[0,0.5],[1,0.5]];portConstraint=eastwest;" parent="16yLQQdebjXsxoNWo0BA-24" vertex="1">
          <mxGeometry y="218" width="330" height="16" as="geometry" />
        </mxCell>
        <mxCell id="16yLQQdebjXsxoNWo0BA-38" value="remove_from_whitelist(self, ctx, user:discord.User)" style="text;align=left;verticalAlign=top;spacingLeft=4;spacingRight=4;overflow=hidden;rotatable=0;points=[[0,0.5],[1,0.5]];portConstraint=eastwest;" parent="16yLQQdebjXsxoNWo0BA-24" vertex="1">
          <mxGeometry y="234" width="330" height="16" as="geometry" />
        </mxCell>
        <mxCell id="16yLQQdebjXsxoNWo0BA-39" value="list_whitelist(self, ctx)" style="text;align=left;verticalAlign=top;spacingLeft=4;spacingRight=4;overflow=hidden;rotatable=0;points=[[0,0.5],[1,0.5]];portConstraint=eastwest;" parent="16yLQQdebjXsxoNWo0BA-24" vertex="1">
          <mxGeometry y="250" width="330" height="16" as="geometry" />
        </mxCell>
        <mxCell id="16yLQQdebjXsxoNWo0BA-40" value="save_auto_ban_whitelist(self)" style="text;align=left;verticalAlign=top;spacingLeft=4;spacingRight=4;overflow=hidden;rotatable=0;points=[[0,0.5],[1,0.5]];portConstraint=eastwest;" parent="16yLQQdebjXsxoNWo0BA-24" vertex="1">
          <mxGeometry y="266" width="330" height="16" as="geometry" />
        </mxCell>
        <mxCell id="16yLQQdebjXsxoNWo0BA-41" value="save_parameters(self)" style="text;align=left;verticalAlign=top;spacingLeft=4;spacingRight=4;overflow=hidden;rotatable=0;points=[[0,0.5],[1,0.5]];portConstraint=eastwest;" parent="16yLQQdebjXsxoNWo0BA-24" vertex="1">
          <mxGeometry y="282" width="330" height="16" as="geometry" />
        </mxCell>
        <mxCell id="_D4drBJ_iWbLpBfFLat7-0" value="" style="endArrow=none;startArrow=diamondThin;endFill=0;startFill=1;html=1;verticalAlign=bottom;labelBackgroundColor=none;strokeWidth=1;startSize=8;endSize=8;rounded=0;exitX=0.5;exitY=1;exitDx=0;exitDy=0;entryX=0.5;entryY=0;entryDx=0;entryDy=0;" parent="WIyWlLk6GJQsqaUBKTNV-1" source="futbrR1-YWrO3oFF-76m-17" target="_D4drBJ_iWbLpBfFLat7-1" edge="1">
          <mxGeometry width="160" relative="1" as="geometry">
            <mxPoint x="-290" y="840" as="sourcePoint" />
            <mxPoint x="-640" y="1100" as="targetPoint" />
            <Array as="points" />
          </mxGeometry>
        </mxCell>
        <mxCell id="_D4drBJ_iWbLpBfFLat7-1" value="ShitpostingHandler" style="swimlane;fontStyle=2;align=center;verticalAlign=top;childLayout=stackLayout;horizontal=1;startSize=26;horizontalStack=0;resizeParent=1;resizeLast=0;collapsible=1;marginBottom=0;rounded=0;shadow=0;strokeWidth=1;" parent="WIyWlLk6GJQsqaUBKTNV-1" vertex="1">
          <mxGeometry x="-840" y="1105" width="390" height="518" as="geometry">
            <mxRectangle x="230" y="140" width="160" height="26" as="alternateBounds" />
          </mxGeometry>
        </mxCell>
        <mxCell id="_D4drBJ_iWbLpBfFLat7-21" value="bot: PolBot" style="text;align=left;verticalAlign=top;spacingLeft=4;spacingRight=4;overflow=hidden;rotatable=0;points=[[0,0.5],[1,0.5]];portConstraint=eastwest;rounded=0;shadow=0;html=0;" parent="_D4drBJ_iWbLpBfFLat7-1" vertex="1">
          <mxGeometry y="26" width="390" height="26" as="geometry" />
        </mxCell>
        <mxCell id="BvJdk-4M-DGuRKk7WB-Y-8" value="self.params" style="text;align=left;verticalAlign=top;spacingLeft=4;spacingRight=4;overflow=hidden;rotatable=0;points=[[0,0.5],[1,0.5]];portConstraint=eastwest;rounded=0;shadow=0;html=0;" parent="_D4drBJ_iWbLpBfFLat7-1" vertex="1">
          <mxGeometry y="52" width="390" height="26" as="geometry" />
        </mxCell>
        <mxCell id="_D4drBJ_iWbLpBfFLat7-4" value="" style="line;html=1;strokeWidth=1;align=left;verticalAlign=middle;spacingTop=-1;spacingLeft=3;spacingRight=3;rotatable=0;labelPosition=right;points=[];portConstraint=eastwest;" parent="_D4drBJ_iWbLpBfFLat7-1" vertex="1">
          <mxGeometry y="78" width="390" height="8" as="geometry" />
        </mxCell>
        <mxCell id="_D4drBJ_iWbLpBfFLat7-22" value="set_polder_here(ctx, polder_channel:discord.TextChannel)" style="text;align=left;verticalAlign=top;spacingLeft=4;spacingRight=4;overflow=hidden;rotatable=0;points=[[0,0.5],[1,0.5]];portConstraint=eastwest;" parent="_D4drBJ_iWbLpBfFLat7-1" vertex="1">
          <mxGeometry y="86" width="390" height="26" as="geometry" />
        </mxCell>
        <mxCell id="_D4drBJ_iWbLpBfFLat7-23" value="enable_polder(ctx)" style="text;align=left;verticalAlign=top;spacingLeft=4;spacingRight=4;overflow=hidden;rotatable=0;points=[[0,0.5],[1,0.5]];portConstraint=eastwest;" parent="_D4drBJ_iWbLpBfFLat7-1" vertex="1">
          <mxGeometry y="112" width="390" height="26" as="geometry" />
        </mxCell>
        <mxCell id="_D4drBJ_iWbLpBfFLat7-24" value="disable_polder(ctx)" style="text;align=left;verticalAlign=top;spacingLeft=4;spacingRight=4;overflow=hidden;rotatable=0;points=[[0,0.5],[1,0.5]];portConstraint=eastwest;" parent="_D4drBJ_iWbLpBfFLat7-1" vertex="1">
          <mxGeometry y="138" width="390" height="26" as="geometry" />
        </mxCell>
        <mxCell id="BvJdk-4M-DGuRKk7WB-Y-2" value="remove_polder_post(ctx)" style="text;align=left;verticalAlign=top;spacingLeft=4;spacingRight=4;overflow=hidden;rotatable=0;points=[[0,0.5],[1,0.5]];portConstraint=eastwest;" parent="_D4drBJ_iWbLpBfFLat7-1" vertex="1">
          <mxGeometry y="164" width="390" height="26" as="geometry" />
        </mxCell>
        <mxCell id="BvJdk-4M-DGuRKk7WB-Y-3" value="_add_polder_post(ctx)" style="text;align=left;verticalAlign=top;spacingLeft=4;spacingRight=4;overflow=hidden;rotatable=0;points=[[0,0.5],[1,0.5]];portConstraint=eastwest;" parent="_D4drBJ_iWbLpBfFLat7-1" vertex="1">
          <mxGeometry y="190" width="390" height="26" as="geometry" />
        </mxCell>
        <mxCell id="_D4drBJ_iWbLpBfFLat7-27" value="enable_random_text_reactions(ctx)" style="text;align=left;verticalAlign=top;spacingLeft=4;spacingRight=4;overflow=hidden;rotatable=0;points=[[0,0.5],[1,0.5]];portConstraint=eastwest;" parent="_D4drBJ_iWbLpBfFLat7-1" vertex="1">
          <mxGeometry y="216" width="390" height="26" as="geometry" />
        </mxCell>
        <mxCell id="_D4drBJ_iWbLpBfFLat7-28" value="disable_random_text_reactions(ctx)" style="text;align=left;verticalAlign=top;spacingLeft=4;spacingRight=4;overflow=hidden;rotatable=0;points=[[0,0.5],[1,0.5]];portConstraint=eastwest;" parent="_D4drBJ_iWbLpBfFLat7-1" vertex="1">
          <mxGeometry y="242" width="390" height="26" as="geometry" />
        </mxCell>
        <mxCell id="BvJdk-4M-DGuRKk7WB-Y-4" value="_post_random_text_reaction(ctx)" style="text;align=left;verticalAlign=top;spacingLeft=4;spacingRight=4;overflow=hidden;rotatable=0;points=[[0,0.5],[1,0.5]];portConstraint=eastwest;" parent="_D4drBJ_iWbLpBfFLat7-1" vertex="1">
          <mxGeometry y="268" width="390" height="26" as="geometry" />
        </mxCell>
        <mxCell id="_D4drBJ_iWbLpBfFLat7-29" value="enable_random_image_posts(ctx)" style="text;align=left;verticalAlign=top;spacingLeft=4;spacingRight=4;overflow=hidden;rotatable=0;points=[[0,0.5],[1,0.5]];portConstraint=eastwest;" parent="_D4drBJ_iWbLpBfFLat7-1" vertex="1">
          <mxGeometry y="294" width="390" height="26" as="geometry" />
        </mxCell>
        <mxCell id="_D4drBJ_iWbLpBfFLat7-30" value="disable_random_image_posts(ctx)" style="text;align=left;verticalAlign=top;spacingLeft=4;spacingRight=4;overflow=hidden;rotatable=0;points=[[0,0.5],[1,0.5]];portConstraint=eastwest;" parent="_D4drBJ_iWbLpBfFLat7-1" vertex="1">
          <mxGeometry y="320" width="390" height="26" as="geometry" />
        </mxCell>
        <mxCell id="BvJdk-4M-DGuRKk7WB-Y-5" value="_post_random_image(ctx)" style="text;align=left;verticalAlign=top;spacingLeft=4;spacingRight=4;overflow=hidden;rotatable=0;points=[[0,0.5],[1,0.5]];portConstraint=eastwest;" parent="_D4drBJ_iWbLpBfFLat7-1" vertex="1">
          <mxGeometry y="346" width="390" height="26" as="geometry" />
        </mxCell>
        <mxCell id="BvJdk-4M-DGuRKk7WB-Y-0" value="allow_shitposting_here(ctx)" style="text;align=left;verticalAlign=top;spacingLeft=4;spacingRight=4;overflow=hidden;rotatable=0;points=[[0,0.5],[1,0.5]];portConstraint=eastwest;" parent="_D4drBJ_iWbLpBfFLat7-1" vertex="1">
          <mxGeometry y="372" width="390" height="26" as="geometry" />
        </mxCell>
        <mxCell id="BvJdk-4M-DGuRKk7WB-Y-1" value="disallow_shitposting_here(ctx)" style="text;align=left;verticalAlign=top;spacingLeft=4;spacingRight=4;overflow=hidden;rotatable=0;points=[[0,0.5],[1,0.5]];portConstraint=eastwest;" parent="_D4drBJ_iWbLpBfFLat7-1" vertex="1">
          <mxGeometry y="398" width="390" height="26" as="geometry" />
        </mxCell>
        <mxCell id="BvJdk-4M-DGuRKk7WB-Y-6" value="shitposting_probability(ctx, percentage:int)" style="text;align=left;verticalAlign=top;spacingLeft=4;spacingRight=4;overflow=hidden;rotatable=0;points=[[0,0.5],[1,0.5]];portConstraint=eastwest;" parent="_D4drBJ_iWbLpBfFLat7-1" vertex="1">
          <mxGeometry y="424" width="390" height="26" as="geometry" />
        </mxCell>
        <mxCell id="AD70kZSKTC4KiqFswOEv-29" value="parameters" style="shape=table;startSize=30;container=1;collapsible=1;childLayout=tableLayout;fixedRows=1;rowLines=0;fontStyle=1;align=center;resizeLast=1;" vertex="1" parent="WIyWlLk6GJQsqaUBKTNV-1">
          <mxGeometry x="-1900" y="1770" width="200" height="100" as="geometry" />
        </mxCell>
        <mxCell id="AD70kZSKTC4KiqFswOEv-30" value="" style="shape=tableRow;horizontal=0;startSize=0;swimlaneHead=0;swimlaneBody=0;fillColor=none;collapsible=0;dropTarget=0;points=[[0,0.5],[1,0.5]];portConstraint=eastwest;top=0;left=0;right=0;bottom=0;" vertex="1" parent="AD70kZSKTC4KiqFswOEv-29">
          <mxGeometry y="30" width="200" height="30" as="geometry" />
        </mxCell>
        <mxCell id="AD70kZSKTC4KiqFswOEv-31" value="" style="shape=partialRectangle;overflow=hidden;connectable=0;fillColor=none;top=0;left=0;bottom=0;right=0;" vertex="1" parent="AD70kZSKTC4KiqFswOEv-30">
          <mxGeometry width="30" height="30" as="geometry">
            <mxRectangle width="30" height="30" as="alternateBounds" />
          </mxGeometry>
        </mxCell>
        <mxCell id="AD70kZSKTC4KiqFswOEv-32" value="parameter TEXT PRIMARY" style="shape=partialRectangle;overflow=hidden;connectable=0;fillColor=none;align=left;top=0;left=0;bottom=0;right=0;spacingLeft=6;" vertex="1" parent="AD70kZSKTC4KiqFswOEv-30">
          <mxGeometry x="30" width="170" height="30" as="geometry">
            <mxRectangle width="170" height="30" as="alternateBounds" />
          </mxGeometry>
        </mxCell>
        <mxCell id="AD70kZSKTC4KiqFswOEv-33" value="" style="shape=tableRow;horizontal=0;startSize=0;swimlaneHead=0;swimlaneBody=0;fillColor=none;collapsible=0;dropTarget=0;points=[[0,0.5],[1,0.5]];portConstraint=eastwest;top=0;left=0;right=0;bottom=0;" vertex="1" parent="AD70kZSKTC4KiqFswOEv-29">
          <mxGeometry y="60" width="200" height="30" as="geometry" />
        </mxCell>
        <mxCell id="AD70kZSKTC4KiqFswOEv-34" value="" style="shape=partialRectangle;overflow=hidden;connectable=0;fillColor=none;top=0;left=0;bottom=0;right=0;" vertex="1" parent="AD70kZSKTC4KiqFswOEv-33">
          <mxGeometry width="30" height="30" as="geometry">
            <mxRectangle width="30" height="30" as="alternateBounds" />
          </mxGeometry>
        </mxCell>
        <mxCell id="AD70kZSKTC4KiqFswOEv-35" value="type TEXT" style="shape=partialRectangle;overflow=hidden;connectable=0;fillColor=none;align=left;top=0;left=0;bottom=0;right=0;spacingLeft=6;" vertex="1" parent="AD70kZSKTC4KiqFswOEv-33">
          <mxGeometry x="30" width="170" height="30" as="geometry">
            <mxRectangle width="170" height="30" as="alternateBounds" />
          </mxGeometry>
        </mxCell>
        <mxCell id="AD70kZSKTC4KiqFswOEv-36" value="server_parameters" style="shape=table;startSize=30;container=1;collapsible=1;childLayout=tableLayout;fixedRows=1;rowLines=0;fontStyle=1;align=center;resizeLast=1;" vertex="1" parent="WIyWlLk6GJQsqaUBKTNV-1">
          <mxGeometry x="-1660" y="1770" width="320" height="130" as="geometry" />
        </mxCell>
        <mxCell id="AD70kZSKTC4KiqFswOEv-37" value="" style="shape=tableRow;horizontal=0;startSize=0;swimlaneHead=0;swimlaneBody=0;fillColor=none;collapsible=0;dropTarget=0;points=[[0,0.5],[1,0.5]];portConstraint=eastwest;top=0;left=0;right=0;bottom=0;" vertex="1" parent="AD70kZSKTC4KiqFswOEv-36">
          <mxGeometry y="30" width="320" height="30" as="geometry" />
        </mxCell>
        <mxCell id="AD70kZSKTC4KiqFswOEv-38" value="" style="shape=partialRectangle;overflow=hidden;connectable=0;fillColor=none;top=0;left=0;bottom=0;right=0;" vertex="1" parent="AD70kZSKTC4KiqFswOEv-37">
          <mxGeometry width="30" height="30" as="geometry">
            <mxRectangle width="30" height="30" as="alternateBounds" />
          </mxGeometry>
        </mxCell>
        <mxCell id="AD70kZSKTC4KiqFswOEv-39" value="server_id INT" style="shape=partialRectangle;overflow=hidden;connectable=0;fillColor=none;align=left;top=0;left=0;bottom=0;right=0;spacingLeft=6;" vertex="1" parent="AD70kZSKTC4KiqFswOEv-37">
          <mxGeometry x="30" width="290" height="30" as="geometry">
            <mxRectangle width="290" height="30" as="alternateBounds" />
          </mxGeometry>
        </mxCell>
        <mxCell id="AD70kZSKTC4KiqFswOEv-40" value="" style="shape=tableRow;horizontal=0;startSize=0;swimlaneHead=0;swimlaneBody=0;fillColor=none;collapsible=0;dropTarget=0;points=[[0,0.5],[1,0.5]];portConstraint=eastwest;top=0;left=0;right=0;bottom=0;" vertex="1" parent="AD70kZSKTC4KiqFswOEv-36">
          <mxGeometry y="60" width="320" height="30" as="geometry" />
        </mxCell>
        <mxCell id="AD70kZSKTC4KiqFswOEv-41" value="" style="shape=partialRectangle;overflow=hidden;connectable=0;fillColor=none;top=0;left=0;bottom=0;right=0;" vertex="1" parent="AD70kZSKTC4KiqFswOEv-40">
          <mxGeometry width="30" height="30" as="geometry">
            <mxRectangle width="30" height="30" as="alternateBounds" />
          </mxGeometry>
        </mxCell>
        <mxCell id="AD70kZSKTC4KiqFswOEv-42" value="parameter_name FOREIGN KEY(parameter) REFERENCES parameters(parameter)" style="shape=partialRectangle;overflow=hidden;connectable=0;fillColor=none;align=left;top=0;left=0;bottom=0;right=0;spacingLeft=6;" vertex="1" parent="AD70kZSKTC4KiqFswOEv-40">
          <mxGeometry x="30" width="290" height="30" as="geometry">
            <mxRectangle width="290" height="30" as="alternateBounds" />
          </mxGeometry>
        </mxCell>
        <mxCell id="AD70kZSKTC4KiqFswOEv-43" value="" style="shape=tableRow;horizontal=0;startSize=0;swimlaneHead=0;swimlaneBody=0;fillColor=none;collapsible=0;dropTarget=0;points=[[0,0.5],[1,0.5]];portConstraint=eastwest;top=0;left=0;right=0;bottom=0;" vertex="1" parent="AD70kZSKTC4KiqFswOEv-36">
          <mxGeometry y="90" width="320" height="30" as="geometry" />
        </mxCell>
        <mxCell id="AD70kZSKTC4KiqFswOEv-44" value="" style="shape=partialRectangle;overflow=hidden;connectable=0;fillColor=none;top=0;left=0;bottom=0;right=0;" vertex="1" parent="AD70kZSKTC4KiqFswOEv-43">
          <mxGeometry width="30" height="30" as="geometry">
            <mxRectangle width="30" height="30" as="alternateBounds" />
          </mxGeometry>
        </mxCell>
        <mxCell id="AD70kZSKTC4KiqFswOEv-45" value="value TEXT" style="shape=partialRectangle;overflow=hidden;connectable=0;fillColor=none;align=left;top=0;left=0;bottom=0;right=0;spacingLeft=6;" vertex="1" parent="AD70kZSKTC4KiqFswOEv-43">
          <mxGeometry x="30" width="290" height="30" as="geometry">
            <mxRectangle width="290" height="30" as="alternateBounds" />
          </mxGeometry>
        </mxCell>
        <mxCell id="AD70kZSKTC4KiqFswOEv-46" value="commands" style="shape=table;startSize=30;container=1;collapsible=1;childLayout=tableLayout;fixedRows=1;rowLines=0;fontStyle=1;align=center;resizeLast=1;" vertex="1" parent="WIyWlLk6GJQsqaUBKTNV-1">
          <mxGeometry x="-1300" y="1770" width="190" height="70" as="geometry" />
        </mxCell>
        <mxCell id="AD70kZSKTC4KiqFswOEv-47" value="" style="shape=tableRow;horizontal=0;startSize=0;swimlaneHead=0;swimlaneBody=0;fillColor=none;collapsible=0;dropTarget=0;points=[[0,0.5],[1,0.5]];portConstraint=eastwest;top=0;left=0;right=0;bottom=0;" vertex="1" parent="AD70kZSKTC4KiqFswOEv-46">
          <mxGeometry y="30" width="190" height="30" as="geometry" />
        </mxCell>
        <mxCell id="AD70kZSKTC4KiqFswOEv-48" value="" style="shape=partialRectangle;overflow=hidden;connectable=0;fillColor=none;top=0;left=0;bottom=0;right=0;" vertex="1" parent="AD70kZSKTC4KiqFswOEv-47">
          <mxGeometry width="30" height="30" as="geometry">
            <mxRectangle width="30" height="30" as="alternateBounds" />
          </mxGeometry>
        </mxCell>
        <mxCell id="AD70kZSKTC4KiqFswOEv-49" value="command TEXT PRIMARY" style="shape=partialRectangle;overflow=hidden;connectable=0;fillColor=none;align=left;top=0;left=0;bottom=0;right=0;spacingLeft=6;" vertex="1" parent="AD70kZSKTC4KiqFswOEv-47">
          <mxGeometry x="30" width="160" height="30" as="geometry">
            <mxRectangle width="160" height="30" as="alternateBounds" />
          </mxGeometry>
        </mxCell>
        <mxCell id="AD70kZSKTC4KiqFswOEv-50" value="server_commands" style="shape=table;startSize=30;container=1;collapsible=1;childLayout=tableLayout;fixedRows=1;rowLines=0;fontStyle=1;align=center;resizeLast=1;" vertex="1" parent="WIyWlLk6GJQsqaUBKTNV-1">
          <mxGeometry x="-1070" y="1770" width="320" height="130" as="geometry" />
        </mxCell>
        <mxCell id="AD70kZSKTC4KiqFswOEv-51" value="" style="shape=tableRow;horizontal=0;startSize=0;swimlaneHead=0;swimlaneBody=0;fillColor=none;collapsible=0;dropTarget=0;points=[[0,0.5],[1,0.5]];portConstraint=eastwest;top=0;left=0;right=0;bottom=0;" vertex="1" parent="AD70kZSKTC4KiqFswOEv-50">
          <mxGeometry y="30" width="320" height="30" as="geometry" />
        </mxCell>
        <mxCell id="AD70kZSKTC4KiqFswOEv-52" value="" style="shape=partialRectangle;overflow=hidden;connectable=0;fillColor=none;top=0;left=0;bottom=0;right=0;" vertex="1" parent="AD70kZSKTC4KiqFswOEv-51">
          <mxGeometry width="30" height="30" as="geometry">
            <mxRectangle width="30" height="30" as="alternateBounds" />
          </mxGeometry>
        </mxCell>
        <mxCell id="AD70kZSKTC4KiqFswOEv-53" value="server_id INT" style="shape=partialRectangle;overflow=hidden;connectable=0;fillColor=none;align=left;top=0;left=0;bottom=0;right=0;spacingLeft=6;" vertex="1" parent="AD70kZSKTC4KiqFswOEv-51">
          <mxGeometry x="30" width="290" height="30" as="geometry">
            <mxRectangle width="290" height="30" as="alternateBounds" />
          </mxGeometry>
        </mxCell>
        <mxCell id="AD70kZSKTC4KiqFswOEv-54" value="" style="shape=tableRow;horizontal=0;startSize=0;swimlaneHead=0;swimlaneBody=0;fillColor=none;collapsible=0;dropTarget=0;points=[[0,0.5],[1,0.5]];portConstraint=eastwest;top=0;left=0;right=0;bottom=0;" vertex="1" parent="AD70kZSKTC4KiqFswOEv-50">
          <mxGeometry y="60" width="320" height="30" as="geometry" />
        </mxCell>
        <mxCell id="AD70kZSKTC4KiqFswOEv-55" value="" style="shape=partialRectangle;overflow=hidden;connectable=0;fillColor=none;top=0;left=0;bottom=0;right=0;" vertex="1" parent="AD70kZSKTC4KiqFswOEv-54">
          <mxGeometry width="30" height="30" as="geometry">
            <mxRectangle width="30" height="30" as="alternateBounds" />
          </mxGeometry>
        </mxCell>
        <mxCell id="AD70kZSKTC4KiqFswOEv-56" value="command_name FOREIGN KEY(command) REFERENCES commands(command)" style="shape=partialRectangle;overflow=hidden;connectable=0;fillColor=none;align=left;top=0;left=0;bottom=0;right=0;spacingLeft=6;" vertex="1" parent="AD70kZSKTC4KiqFswOEv-54">
          <mxGeometry x="30" width="290" height="30" as="geometry">
            <mxRectangle width="290" height="30" as="alternateBounds" />
          </mxGeometry>
        </mxCell>
        <mxCell id="AD70kZSKTC4KiqFswOEv-57" value="" style="shape=tableRow;horizontal=0;startSize=0;swimlaneHead=0;swimlaneBody=0;fillColor=none;collapsible=0;dropTarget=0;points=[[0,0.5],[1,0.5]];portConstraint=eastwest;top=0;left=0;right=0;bottom=0;" vertex="1" parent="AD70kZSKTC4KiqFswOEv-50">
          <mxGeometry y="90" width="320" height="30" as="geometry" />
        </mxCell>
        <mxCell id="AD70kZSKTC4KiqFswOEv-58" value="" style="shape=partialRectangle;overflow=hidden;connectable=0;fillColor=none;top=0;left=0;bottom=0;right=0;" vertex="1" parent="AD70kZSKTC4KiqFswOEv-57">
          <mxGeometry width="30" height="30" as="geometry">
            <mxRectangle width="30" height="30" as="alternateBounds" />
          </mxGeometry>
        </mxCell>
        <mxCell id="AD70kZSKTC4KiqFswOEv-59" value="role_id INT" style="shape=partialRectangle;overflow=hidden;connectable=0;fillColor=none;align=left;top=0;left=0;bottom=0;right=0;spacingLeft=6;" vertex="1" parent="AD70kZSKTC4KiqFswOEv-57">
          <mxGeometry x="30" width="290" height="30" as="geometry">
            <mxRectangle width="290" height="30" as="alternateBounds" />
          </mxGeometry>
        </mxCell>
        <mxCell id="AD70kZSKTC4KiqFswOEv-60" value="auto_ban_whitelist" style="shape=table;startSize=30;container=1;collapsible=1;childLayout=tableLayout;fixedRows=1;rowLines=0;fontStyle=1;align=center;resizeLast=1;" vertex="1" parent="WIyWlLk6GJQsqaUBKTNV-1">
          <mxGeometry x="-710" y="1770" width="120" height="100" as="geometry" />
        </mxCell>
        <mxCell id="AD70kZSKTC4KiqFswOEv-61" value="" style="shape=tableRow;horizontal=0;startSize=0;swimlaneHead=0;swimlaneBody=0;fillColor=none;collapsible=0;dropTarget=0;points=[[0,0.5],[1,0.5]];portConstraint=eastwest;top=0;left=0;right=0;bottom=0;" vertex="1" parent="AD70kZSKTC4KiqFswOEv-60">
          <mxGeometry y="30" width="120" height="30" as="geometry" />
        </mxCell>
        <mxCell id="AD70kZSKTC4KiqFswOEv-62" value="" style="shape=partialRectangle;overflow=hidden;connectable=0;fillColor=none;top=0;left=0;bottom=0;right=0;" vertex="1" parent="AD70kZSKTC4KiqFswOEv-61">
          <mxGeometry width="30" height="30" as="geometry">
            <mxRectangle width="30" height="30" as="alternateBounds" />
          </mxGeometry>
        </mxCell>
        <mxCell id="AD70kZSKTC4KiqFswOEv-63" value="server_id INT" style="shape=partialRectangle;overflow=hidden;connectable=0;fillColor=none;align=left;top=0;left=0;bottom=0;right=0;spacingLeft=6;" vertex="1" parent="AD70kZSKTC4KiqFswOEv-61">
          <mxGeometry x="30" width="90" height="30" as="geometry">
            <mxRectangle width="90" height="30" as="alternateBounds" />
          </mxGeometry>
        </mxCell>
        <mxCell id="AD70kZSKTC4KiqFswOEv-64" value="" style="shape=tableRow;horizontal=0;startSize=0;swimlaneHead=0;swimlaneBody=0;fillColor=none;collapsible=0;dropTarget=0;points=[[0,0.5],[1,0.5]];portConstraint=eastwest;top=0;left=0;right=0;bottom=0;" vertex="1" parent="AD70kZSKTC4KiqFswOEv-60">
          <mxGeometry y="60" width="120" height="30" as="geometry" />
        </mxCell>
        <mxCell id="AD70kZSKTC4KiqFswOEv-65" value="" style="shape=partialRectangle;overflow=hidden;connectable=0;fillColor=none;top=0;left=0;bottom=0;right=0;" vertex="1" parent="AD70kZSKTC4KiqFswOEv-64">
          <mxGeometry width="30" height="30" as="geometry">
            <mxRectangle width="30" height="30" as="alternateBounds" />
          </mxGeometry>
        </mxCell>
        <mxCell id="AD70kZSKTC4KiqFswOEv-66" value="user_id INT" style="shape=partialRectangle;overflow=hidden;connectable=0;fillColor=none;align=left;top=0;left=0;bottom=0;right=0;spacingLeft=6;" vertex="1" parent="AD70kZSKTC4KiqFswOEv-64">
          <mxGeometry x="30" width="90" height="30" as="geometry">
            <mxRectangle width="90" height="30" as="alternateBounds" />
          </mxGeometry>
        </mxCell>
        <mxCell id="AD70kZSKTC4KiqFswOEv-67" value="polder" style="shape=table;startSize=30;container=1;collapsible=1;childLayout=tableLayout;fixedRows=1;rowLines=0;fontStyle=1;align=center;resizeLast=1;" vertex="1" parent="WIyWlLk6GJQsqaUBKTNV-1">
          <mxGeometry x="-550" y="1770" width="200" height="160" as="geometry" />
        </mxCell>
        <mxCell id="AD70kZSKTC4KiqFswOEv-68" value="" style="shape=tableRow;horizontal=0;startSize=0;swimlaneHead=0;swimlaneBody=0;fillColor=none;collapsible=0;dropTarget=0;points=[[0,0.5],[1,0.5]];portConstraint=eastwest;top=0;left=0;right=0;bottom=0;" vertex="1" parent="AD70kZSKTC4KiqFswOEv-67">
          <mxGeometry y="30" width="200" height="30" as="geometry" />
        </mxCell>
        <mxCell id="AD70kZSKTC4KiqFswOEv-69" value="" style="shape=partialRectangle;overflow=hidden;connectable=0;fillColor=none;top=0;left=0;bottom=0;right=0;" vertex="1" parent="AD70kZSKTC4KiqFswOEv-68">
          <mxGeometry width="30" height="30" as="geometry">
            <mxRectangle width="30" height="30" as="alternateBounds" />
          </mxGeometry>
        </mxCell>
        <mxCell id="AD70kZSKTC4KiqFswOEv-70" value="server_id INT" style="shape=partialRectangle;overflow=hidden;connectable=0;fillColor=none;align=left;top=0;left=0;bottom=0;right=0;spacingLeft=6;" vertex="1" parent="AD70kZSKTC4KiqFswOEv-68">
          <mxGeometry x="30" width="170" height="30" as="geometry">
            <mxRectangle width="170" height="30" as="alternateBounds" />
          </mxGeometry>
        </mxCell>
        <mxCell id="AD70kZSKTC4KiqFswOEv-71" value="" style="shape=tableRow;horizontal=0;startSize=0;swimlaneHead=0;swimlaneBody=0;fillColor=none;collapsible=0;dropTarget=0;points=[[0,0.5],[1,0.5]];portConstraint=eastwest;top=0;left=0;right=0;bottom=0;" vertex="1" parent="AD70kZSKTC4KiqFswOEv-67">
          <mxGeometry y="60" width="200" height="30" as="geometry" />
        </mxCell>
        <mxCell id="AD70kZSKTC4KiqFswOEv-72" value="" style="shape=partialRectangle;overflow=hidden;connectable=0;fillColor=none;top=0;left=0;bottom=0;right=0;" vertex="1" parent="AD70kZSKTC4KiqFswOEv-71">
          <mxGeometry width="30" height="30" as="geometry">
            <mxRectangle width="30" height="30" as="alternateBounds" />
          </mxGeometry>
        </mxCell>
        <mxCell id="AD70kZSKTC4KiqFswOEv-73" value="message_id PRIMARY INT" style="shape=partialRectangle;overflow=hidden;connectable=0;fillColor=none;align=left;top=0;left=0;bottom=0;right=0;spacingLeft=6;" vertex="1" parent="AD70kZSKTC4KiqFswOEv-71">
          <mxGeometry x="30" width="170" height="30" as="geometry">
            <mxRectangle width="170" height="30" as="alternateBounds" />
          </mxGeometry>
        </mxCell>
        <mxCell id="AD70kZSKTC4KiqFswOEv-74" value="" style="shape=tableRow;horizontal=0;startSize=0;swimlaneHead=0;swimlaneBody=0;fillColor=none;collapsible=0;dropTarget=0;points=[[0,0.5],[1,0.5]];portConstraint=eastwest;top=0;left=0;right=0;bottom=0;" vertex="1" parent="AD70kZSKTC4KiqFswOEv-67">
          <mxGeometry y="90" width="200" height="30" as="geometry" />
        </mxCell>
        <mxCell id="AD70kZSKTC4KiqFswOEv-75" value="" style="shape=partialRectangle;overflow=hidden;connectable=0;fillColor=none;top=0;left=0;bottom=0;right=0;" vertex="1" parent="AD70kZSKTC4KiqFswOEv-74">
          <mxGeometry width="30" height="30" as="geometry">
            <mxRectangle width="30" height="30" as="alternateBounds" />
          </mxGeometry>
        </mxCell>
        <mxCell id="AD70kZSKTC4KiqFswOEv-76" value="content TEXT" style="shape=partialRectangle;overflow=hidden;connectable=0;fillColor=none;align=left;top=0;left=0;bottom=0;right=0;spacingLeft=6;" vertex="1" parent="AD70kZSKTC4KiqFswOEv-74">
          <mxGeometry x="30" width="170" height="30" as="geometry">
            <mxRectangle width="170" height="30" as="alternateBounds" />
          </mxGeometry>
        </mxCell>
        <mxCell id="AD70kZSKTC4KiqFswOEv-77" value="" style="shape=tableRow;horizontal=0;startSize=0;swimlaneHead=0;swimlaneBody=0;fillColor=none;collapsible=0;dropTarget=0;points=[[0,0.5],[1,0.5]];portConstraint=eastwest;top=0;left=0;right=0;bottom=0;" vertex="1" parent="AD70kZSKTC4KiqFswOEv-67">
          <mxGeometry y="120" width="200" height="30" as="geometry" />
        </mxCell>
        <mxCell id="AD70kZSKTC4KiqFswOEv-78" value="" style="shape=partialRectangle;overflow=hidden;connectable=0;fillColor=none;top=0;left=0;bottom=0;right=0;" vertex="1" parent="AD70kZSKTC4KiqFswOEv-77">
          <mxGeometry width="30" height="30" as="geometry">
            <mxRectangle width="30" height="30" as="alternateBounds" />
          </mxGeometry>
        </mxCell>
        <mxCell id="AD70kZSKTC4KiqFswOEv-79" value="author_id INT" style="shape=partialRectangle;overflow=hidden;connectable=0;fillColor=none;align=left;top=0;left=0;bottom=0;right=0;spacingLeft=6;" vertex="1" parent="AD70kZSKTC4KiqFswOEv-77">
          <mxGeometry x="30" width="170" height="30" as="geometry">
            <mxRectangle width="170" height="30" as="alternateBounds" />
          </mxGeometry>
        </mxCell>
        <mxCell id="AD70kZSKTC4KiqFswOEv-80" value="emoji_triggers" style="shape=table;startSize=30;container=1;collapsible=1;childLayout=tableLayout;fixedRows=1;rowLines=0;fontStyle=1;align=center;resizeLast=1;" vertex="1" parent="WIyWlLk6GJQsqaUBKTNV-1">
          <mxGeometry x="-310" y="1770" width="160" height="130" as="geometry" />
        </mxCell>
        <mxCell id="AD70kZSKTC4KiqFswOEv-81" value="" style="shape=tableRow;horizontal=0;startSize=0;swimlaneHead=0;swimlaneBody=0;fillColor=none;collapsible=0;dropTarget=0;points=[[0,0.5],[1,0.5]];portConstraint=eastwest;top=0;left=0;right=0;bottom=0;" vertex="1" parent="AD70kZSKTC4KiqFswOEv-80">
          <mxGeometry y="30" width="160" height="30" as="geometry" />
        </mxCell>
        <mxCell id="AD70kZSKTC4KiqFswOEv-82" value="" style="shape=partialRectangle;overflow=hidden;connectable=0;fillColor=none;top=0;left=0;bottom=0;right=0;" vertex="1" parent="AD70kZSKTC4KiqFswOEv-81">
          <mxGeometry width="30" height="30" as="geometry">
            <mxRectangle width="30" height="30" as="alternateBounds" />
          </mxGeometry>
        </mxCell>
        <mxCell id="AD70kZSKTC4KiqFswOEv-83" value="server_id INT" style="shape=partialRectangle;overflow=hidden;connectable=0;fillColor=none;align=left;top=0;left=0;bottom=0;right=0;spacingLeft=6;" vertex="1" parent="AD70kZSKTC4KiqFswOEv-81">
          <mxGeometry x="30" width="130" height="30" as="geometry">
            <mxRectangle width="130" height="30" as="alternateBounds" />
          </mxGeometry>
        </mxCell>
        <mxCell id="AD70kZSKTC4KiqFswOEv-84" value="" style="shape=tableRow;horizontal=0;startSize=0;swimlaneHead=0;swimlaneBody=0;fillColor=none;collapsible=0;dropTarget=0;points=[[0,0.5],[1,0.5]];portConstraint=eastwest;top=0;left=0;right=0;bottom=0;" vertex="1" parent="AD70kZSKTC4KiqFswOEv-80">
          <mxGeometry y="60" width="160" height="30" as="geometry" />
        </mxCell>
        <mxCell id="AD70kZSKTC4KiqFswOEv-85" value="" style="shape=partialRectangle;overflow=hidden;connectable=0;fillColor=none;top=0;left=0;bottom=0;right=0;" vertex="1" parent="AD70kZSKTC4KiqFswOEv-84">
          <mxGeometry width="30" height="30" as="geometry">
            <mxRectangle width="30" height="30" as="alternateBounds" />
          </mxGeometry>
        </mxCell>
        <mxCell id="AD70kZSKTC4KiqFswOEv-86" value="trigger_phrase TEXT" style="shape=partialRectangle;overflow=hidden;connectable=0;fillColor=none;align=left;top=0;left=0;bottom=0;right=0;spacingLeft=6;" vertex="1" parent="AD70kZSKTC4KiqFswOEv-84">
          <mxGeometry x="30" width="130" height="30" as="geometry">
            <mxRectangle width="130" height="30" as="alternateBounds" />
          </mxGeometry>
        </mxCell>
        <mxCell id="AD70kZSKTC4KiqFswOEv-87" value="" style="shape=tableRow;horizontal=0;startSize=0;swimlaneHead=0;swimlaneBody=0;fillColor=none;collapsible=0;dropTarget=0;points=[[0,0.5],[1,0.5]];portConstraint=eastwest;top=0;left=0;right=0;bottom=0;" vertex="1" parent="AD70kZSKTC4KiqFswOEv-80">
          <mxGeometry y="90" width="160" height="30" as="geometry" />
        </mxCell>
        <mxCell id="AD70kZSKTC4KiqFswOEv-88" value="" style="shape=partialRectangle;overflow=hidden;connectable=0;fillColor=none;top=0;left=0;bottom=0;right=0;" vertex="1" parent="AD70kZSKTC4KiqFswOEv-87">
          <mxGeometry width="30" height="30" as="geometry">
            <mxRectangle width="30" height="30" as="alternateBounds" />
          </mxGeometry>
        </mxCell>
        <mxCell id="AD70kZSKTC4KiqFswOEv-89" value="emoji_id INT" style="shape=partialRectangle;overflow=hidden;connectable=0;fillColor=none;align=left;top=0;left=0;bottom=0;right=0;spacingLeft=6;" vertex="1" parent="AD70kZSKTC4KiqFswOEv-87">
          <mxGeometry x="30" width="130" height="30" as="geometry">
            <mxRectangle width="130" height="30" as="alternateBounds" />
          </mxGeometry>
        </mxCell>
        <mxCell id="AD70kZSKTC4KiqFswOEv-90" value="text_triggers" style="shape=table;startSize=30;container=1;collapsible=1;childLayout=tableLayout;fixedRows=1;rowLines=0;fontStyle=1;align=center;resizeLast=1;" vertex="1" parent="WIyWlLk6GJQsqaUBKTNV-1">
          <mxGeometry x="-110" y="1770" width="160" height="130" as="geometry" />
        </mxCell>
        <mxCell id="AD70kZSKTC4KiqFswOEv-91" value="" style="shape=tableRow;horizontal=0;startSize=0;swimlaneHead=0;swimlaneBody=0;fillColor=none;collapsible=0;dropTarget=0;points=[[0,0.5],[1,0.5]];portConstraint=eastwest;top=0;left=0;right=0;bottom=0;" vertex="1" parent="AD70kZSKTC4KiqFswOEv-90">
          <mxGeometry y="30" width="160" height="30" as="geometry" />
        </mxCell>
        <mxCell id="AD70kZSKTC4KiqFswOEv-92" value="" style="shape=partialRectangle;overflow=hidden;connectable=0;fillColor=none;top=0;left=0;bottom=0;right=0;" vertex="1" parent="AD70kZSKTC4KiqFswOEv-91">
          <mxGeometry width="30" height="30" as="geometry">
            <mxRectangle width="30" height="30" as="alternateBounds" />
          </mxGeometry>
        </mxCell>
        <mxCell id="AD70kZSKTC4KiqFswOEv-93" value="server_id INT" style="shape=partialRectangle;overflow=hidden;connectable=0;fillColor=none;align=left;top=0;left=0;bottom=0;right=0;spacingLeft=6;" vertex="1" parent="AD70kZSKTC4KiqFswOEv-91">
          <mxGeometry x="30" width="130" height="30" as="geometry">
            <mxRectangle width="130" height="30" as="alternateBounds" />
          </mxGeometry>
        </mxCell>
        <mxCell id="AD70kZSKTC4KiqFswOEv-94" value="" style="shape=tableRow;horizontal=0;startSize=0;swimlaneHead=0;swimlaneBody=0;fillColor=none;collapsible=0;dropTarget=0;points=[[0,0.5],[1,0.5]];portConstraint=eastwest;top=0;left=0;right=0;bottom=0;" vertex="1" parent="AD70kZSKTC4KiqFswOEv-90">
          <mxGeometry y="60" width="160" height="30" as="geometry" />
        </mxCell>
        <mxCell id="AD70kZSKTC4KiqFswOEv-95" value="" style="shape=partialRectangle;overflow=hidden;connectable=0;fillColor=none;top=0;left=0;bottom=0;right=0;" vertex="1" parent="AD70kZSKTC4KiqFswOEv-94">
          <mxGeometry width="30" height="30" as="geometry">
            <mxRectangle width="30" height="30" as="alternateBounds" />
          </mxGeometry>
        </mxCell>
        <mxCell id="AD70kZSKTC4KiqFswOEv-96" value="trigger_phrase TEXT" style="shape=partialRectangle;overflow=hidden;connectable=0;fillColor=none;align=left;top=0;left=0;bottom=0;right=0;spacingLeft=6;" vertex="1" parent="AD70kZSKTC4KiqFswOEv-94">
          <mxGeometry x="30" width="130" height="30" as="geometry">
            <mxRectangle width="130" height="30" as="alternateBounds" />
          </mxGeometry>
        </mxCell>
        <mxCell id="AD70kZSKTC4KiqFswOEv-97" value="" style="shape=tableRow;horizontal=0;startSize=0;swimlaneHead=0;swimlaneBody=0;fillColor=none;collapsible=0;dropTarget=0;points=[[0,0.5],[1,0.5]];portConstraint=eastwest;top=0;left=0;right=0;bottom=0;" vertex="1" parent="AD70kZSKTC4KiqFswOEv-90">
          <mxGeometry y="90" width="160" height="30" as="geometry" />
        </mxCell>
        <mxCell id="AD70kZSKTC4KiqFswOEv-98" value="" style="shape=partialRectangle;overflow=hidden;connectable=0;fillColor=none;top=0;left=0;bottom=0;right=0;" vertex="1" parent="AD70kZSKTC4KiqFswOEv-97">
          <mxGeometry width="30" height="30" as="geometry">
            <mxRectangle width="30" height="30" as="alternateBounds" />
          </mxGeometry>
        </mxCell>
        <mxCell id="AD70kZSKTC4KiqFswOEv-99" value="message TEXT" style="shape=partialRectangle;overflow=hidden;connectable=0;fillColor=none;align=left;top=0;left=0;bottom=0;right=0;spacingLeft=6;" vertex="1" parent="AD70kZSKTC4KiqFswOEv-97">
          <mxGeometry x="30" width="130" height="30" as="geometry">
            <mxRectangle width="130" height="30" as="alternateBounds" />
          </mxGeometry>
        </mxCell>
      </root>
    </mxGraphModel>
  </diagram>
</mxfile>
